<svg width="134" height="26" viewBox="0 0 134 26" fill="none" xmlns="http://www.w3.org/2000/svg">
<path d="M0 10.3402V25.9044H21.6939V21.4814H4.54009V14.7662H21.697V10.3402H0ZM64.7605 1.10874C63.1605 1.78414 61.7471 2.71356 60.557 3.8731C59.3699 5.02966 58.4154 6.40736 57.721 7.96138C57.0234 9.53034 56.6685 11.2308 56.6685 13.012V14.034H61.1077V13.012C61.1077 11.8195 61.3371 10.6959 61.7899 9.67678C62.2457 8.64874 62.879 7.74023 63.6714 6.97816C64.4668 6.21609 65.4122 5.60644 66.4799 5.1731C68.597 4.31241 71.2127 4.3154 73.3053 5.17011C74.3639 5.60644 75.3031 6.2131 76.0985 6.97816C76.8909 7.74023 77.5242 8.64276 77.98 9.66782C78.4298 10.6899 78.6592 11.8106 78.6592 13C78.6592 14.1655 78.4298 15.2713 77.98 16.2963C77.5181 17.3303 76.8848 18.2388 76.0985 18.992C75.2939 19.763 74.3516 20.3756 73.2962 20.8149C72.256 21.2572 71.124 21.4814 69.9339 21.4814H68.8907V25.9044H69.9339C71.7695 25.9044 73.5164 25.5637 75.1195 24.8823C76.7135 24.2069 78.1238 23.2805 79.317 22.1239C80.5132 20.9584 81.4646 19.5837 82.153 18.0356C82.8475 16.4667 83.1993 14.7662 83.1993 12.9821C83.1993 11.1979 82.8505 9.49747 82.1652 7.93747C81.4861 6.38345 80.5346 5.00575 79.3415 3.84322C78.1544 2.68667 76.741 1.76322 75.1379 1.09977C73.5409 0.436322 71.7512 0.107586 69.9615 0.107586C68.1626 0.104598 66.3636 0.43931 64.7605 1.10874ZM88.5838 0.0926437V4.51563H98.5818C99.212 4.51563 99.8728 4.6023 100.543 4.76966C101.185 4.93402 101.779 5.19402 102.302 5.5377C102.804 5.87839 103.226 6.3446 103.553 6.9154C103.878 7.47724 104.043 8.19747 104.043 9.05218C104.043 9.77839 103.905 10.4239 103.636 10.9708C103.367 11.5207 102.993 11.9869 102.531 12.3515C102.054 12.731 101.473 13.0269 100.803 13.2331C100.115 13.4453 99.368 13.5529 98.5818 13.5529H88.5838V25.9044H93.1239V17.9789H98.5818C99.8851 17.9789 101.149 17.7936 102.333 17.423C103.544 17.0434 104.621 16.4786 105.536 15.7405C106.469 14.9903 107.218 14.046 107.763 12.9253C108.304 11.8046 108.583 10.4956 108.583 9.03724C108.583 7.53402 108.265 6.19816 107.644 5.07149C107.032 3.96276 106.224 3.02437 105.236 2.27724C104.266 1.54805 103.186 0.995172 102.02 0.630575C100.858 0.271954 99.7015 0.0896552 98.5848 0.0896552H88.5838V0.0926437ZM123.959 0.0926437C122.879 0.0926437 121.753 0.185287 120.609 0.373563C119.422 0.57977 118.336 0.950345 117.385 1.47931C116.378 2.03517 115.549 2.80621 114.928 3.75954C114.285 4.73379 113.961 5.97701 113.961 7.44437C113.961 8.62782 114.142 9.66184 114.5 10.5076C114.864 11.3623 115.344 12.0766 115.928 12.6294C116.513 13.1853 117.189 13.6186 117.941 13.9205C118.645 14.2044 119.37 14.4136 120.101 14.5391C120.82 14.6646 121.524 14.7393 122.194 14.7632C122.754 14.7841 123.252 14.8021 123.708 14.82L126.18 14.826C126.612 14.826 127.028 14.9126 127.41 15.083C127.808 15.2623 128.16 15.5074 128.459 15.8182C128.762 16.123 129.001 16.4966 129.181 16.9299C129.359 17.3572 129.451 17.8294 129.451 18.3285C129.451 18.6961 129.356 19.0667 129.169 19.4313C128.964 19.8287 128.692 20.1933 128.362 20.5071C128.034 20.8149 127.664 21.066 127.26 21.2543C126.887 21.4246 126.523 21.5113 126.18 21.5113H114.726V25.9313H126.345C127.416 25.9313 128.435 25.7041 129.371 25.2559C130.289 24.8165 131.087 24.2188 131.748 23.4867C132.403 22.7724 132.926 21.9476 133.309 21.0361C133.694 20.1067 133.893 19.1384 133.893 18.1701C133.893 17.0494 133.734 16.0094 133.413 15.077C133.082 14.1147 132.584 13.2779 131.932 12.5876C131.283 11.9062 130.482 11.3623 129.546 10.9738C128.625 10.5913 127.569 10.4 126.413 10.4H121.509C121.187 10.4 120.848 10.3372 120.496 10.2177C120.15 10.0982 119.82 9.91586 119.511 9.66184C119.217 9.42276 118.969 9.11494 118.777 8.74437C118.593 8.39471 118.501 7.9554 118.501 7.44138C118.501 7.0469 118.602 6.70322 118.813 6.39839C119.07 6.02184 119.398 5.69011 119.786 5.41517C120.187 5.12828 120.624 4.90414 121.093 4.74575C121.548 4.59333 121.964 4.51264 122.322 4.51264H133.985V0.0926437H123.959ZM0 4.45287H21.6603V0.0298851H0V4.45287V4.45287ZM52.8168 0L28.5071 0.0298851V4.44989H43.5255L28.5071 22.7455V25.8685H51.0791V21.4515H35.4152L53.0279 0H52.8168V0Z" fill="url(#paint0_linear)"/>
<defs>
<linearGradient id="paint0_linear" x1="-0.000305936" y1="12.9674" x2="133.99" y2="12.9674" gradientUnits="userSpaceOnUse">
<stop stop-color="#47DAE7"/>
<stop offset="0.00327273" stop-color="#00FFFF"/>
<stop offset="1" stop-color="#2C57EC"/>
</linearGradient>
</defs>
</svg>
