<svg width="178" height="41" viewBox="0 0 178 41" fill="none" xmlns="http://www.w3.org/2000/svg">
<g clip-path="url(#clip0_1178_22490)">
<g clip-path="url(#clip1_1178_22490)">
<path d="M19.8251 31.6649C13.7216 31.3495 8.86055 26.3366 8.86055 20.1603C8.86055 20.0733 8.87145 19.9863 8.87145 19.9102H0.315587C0.315587 19.9971 0.304688 20.0841 0.304688 20.1603C0.304688 31.0451 8.99134 39.8856 19.8251 40.2009V31.6649V31.6649Z" fill="white"/>
<path d="M20.0547 28.87C26.1582 29.1854 31.0193 34.1982 31.0193 40.3746C31.0193 40.4616 31.0084 40.5486 31.0084 40.6247H39.5642C39.5642 40.5377 39.5751 40.4508 39.5751 40.3746C39.5751 29.4898 30.8885 20.6493 20.0547 20.334V28.87V28.87Z" fill="white"/>
<path d="M40.0009 11.7547C33.8974 11.4394 29.0363 6.42649 29.0363 0.2501C29.0363 0.163109 29.0472 0.0761175 29.0472 0H20.4914C20.4914 0.0869914 20.4805 0.173983 20.4805 0.2501C20.4805 11.1349 29.1671 19.9754 40.0009 20.2908V11.7547V11.7547Z" fill="#6700F6"/>
<path d="M19.8212 11.7547C13.7177 11.4394 8.85664 6.42649 8.85664 0.2501C8.85664 0.163109 8.86754 0.0761175 8.86754 0H0.31168C0.31168 0.0869914 0.300781 0.173983 0.300781 0.2501C0.300781 11.1349 8.98743 19.9754 19.8212 20.2908V11.7547Z" fill="white"/>
</g>
<path d="M68.2285 25.1345C67.3311 26.9431 65.2936 28.0785 63.054 27.6C61.3157 27.2269 59.9089 25.8158 59.5451 24.0639C58.9144 21.055 61.1863 18.4029 64.0728 18.4029C66.0294 18.4029 67.6949 19.6195 68.3822 21.3308C68.4549 21.5092 68.6166 21.6308 68.8026 21.6308H71.5111C71.7698 21.6308 71.972 21.3875 71.9073 21.1361C71.0503 17.5919 67.8647 14.9561 64.0647 14.9561C59.7795 14.9561 56.1412 18.4922 56.0037 22.7987C55.8663 27.381 59.5289 31.1442 64.0647 31.1442C67.7192 31.1442 70.7996 28.703 71.7941 25.3616C71.8669 25.1102 71.6647 24.8506 71.406 24.8506H68.6409C68.463 24.8506 68.3013 24.9561 68.2204 25.1183L68.2285 25.1345Z" fill="white"/>
<path d="M81.6474 15.6367C77.3784 15.6367 73.918 19.1079 73.918 23.3902C73.918 27.6724 77.3784 31.1436 81.6474 31.1436C85.9164 31.1436 89.3768 27.6724 89.3768 23.3902C89.3768 19.1079 85.9164 15.6367 81.6474 15.6367V15.6367ZM81.6474 27.8427C79.1976 27.8427 77.2086 25.8476 77.2086 23.3902C77.2086 20.9327 79.1976 18.9376 81.6474 18.9376C84.0972 18.9376 86.0862 20.9327 86.0862 23.3902C86.0862 25.8476 84.0972 27.8427 81.6474 27.8427V27.8427Z" fill="white"/>
<path d="M105.269 21.6793V30.6899C105.269 30.9413 105.067 31.1441 104.816 31.1441H102.205C101.954 31.1441 101.752 30.9413 101.752 30.6899V23.2933C101.752 20.0978 100.911 18.7029 98.4696 18.7029C96.1815 18.7029 94.896 20.2195 94.896 22.8715V30.6899C94.896 30.9413 94.6938 31.1441 94.4432 31.1441H91.8317C91.581 31.1441 91.3789 30.9413 91.3789 30.6899V9.92751C91.3789 9.67609 91.581 9.48145 91.8236 9.48145H94.4351C94.6857 9.48145 94.8798 9.6842 94.8798 9.92751V18.1838C95.8096 16.5698 97.556 15.6939 99.7713 15.6939C103.377 15.6939 105.245 17.7296 105.245 21.6712L105.269 21.6793Z" fill="white"/>
<path d="M121.459 24.3879H110.746C110.843 26.7805 112.387 28.07 114.934 28.07C116.551 28.07 117.554 27.5996 118.152 26.5939C118.241 26.4479 118.387 26.3587 118.548 26.3587H121.241C121.556 26.3587 121.774 26.6669 121.685 26.967C120.95 29.4488 118.273 31.1438 114.934 31.1438C110.196 31.1438 107.27 28.1106 107.27 23.2281C107.27 18.3457 110.229 15.3125 114.805 15.3125C119.09 15.3125 121.985 18.216 121.985 22.4496C121.985 22.9524 121.96 23.366 121.92 23.9581C121.904 24.2014 121.702 24.3879 121.459 24.3879V24.3879ZM118.532 21.7034C118.5 19.3758 117.15 18.0862 114.732 18.0862C112.315 18.0862 110.77 19.5704 110.738 21.7034H118.532Z" fill="white"/>
<path d="M124.453 16.0911H127.032C127.291 16.0911 127.493 16.302 127.493 16.5534V18.362C128.181 16.7886 129.846 15.8965 131.487 15.8965C131.851 15.8965 132.167 15.9127 132.458 15.9451C132.7 15.9776 132.87 16.1803 132.87 16.4237V18.7351C132.87 19.0108 132.636 19.2298 132.361 19.2136C132.086 19.1974 131.843 19.1974 131.487 19.1974C129.005 19.1974 127.493 21.0709 127.493 24.4934V30.6248C127.493 30.9086 127.259 31.1439 126.976 31.1439H124.502C124.219 31.1439 123.984 30.9086 123.984 30.6248V16.5615C123.984 16.302 124.195 16.0992 124.445 16.0992L124.453 16.0911Z" fill="white"/>
<path d="M149.085 24.3879H138.356C138.453 26.7805 139.997 28.07 142.544 28.07C144.161 28.07 145.164 27.5915 145.762 26.5939C145.843 26.4561 145.988 26.3587 146.158 26.3587H148.858C149.166 26.3587 149.384 26.6588 149.295 26.9589C148.567 29.4488 145.883 31.1438 142.536 31.1438C137.798 31.1438 134.871 28.1106 134.871 23.2281C134.871 18.3457 137.83 15.3125 142.406 15.3125C146.692 15.3125 149.586 18.216 149.586 22.4496C149.586 22.9524 149.562 23.3741 149.521 23.9662C149.505 24.2014 149.311 24.3879 149.077 24.3879H149.085ZM146.15 21.7034C146.118 19.3758 144.767 18.0862 142.35 18.0862C139.932 18.0862 138.388 19.5704 138.356 21.7034H146.15Z" fill="white"/>
<path d="M152.063 16.0914H154.642C154.901 16.0914 155.103 16.3023 155.103 16.5537V18.192C156.033 16.5781 157.779 15.7021 159.995 15.7021C163.601 15.7021 165.468 17.7378 165.468 21.6794V30.69C165.468 30.9414 165.266 31.1442 165.015 31.1442H162.412C162.161 31.1442 161.959 30.9414 161.959 30.69V23.2934C161.959 20.0979 161.118 18.703 158.677 18.703C156.389 18.703 155.103 20.2196 155.103 22.8717V30.69C155.103 30.9414 154.901 31.1442 154.65 31.1442H152.039C151.788 31.1442 151.586 30.9414 151.586 30.69V16.5537C151.586 16.2942 151.796 16.0914 152.047 16.0914H152.063Z" fill="white"/>
<path d="M173.521 11.5818V15.8965H176.504C176.763 15.8965 176.965 16.1074 176.965 16.3588V18.3701C176.965 18.6297 176.755 18.8324 176.504 18.8324H173.521V25.0368C173.521 27.6564 174.329 27.9727 175.712 27.9727C176.076 27.9727 176.585 27.9403 176.989 27.9078C177.256 27.8835 177.482 28.0944 177.482 28.362V30.5518C177.482 30.7789 177.321 30.9735 177.086 31.006C176.512 31.079 175.687 31.1439 174.871 31.1439C173.165 31.1439 170.012 30.9168 170.012 25.8478V18.8405H167.918C167.667 18.8405 167.465 18.6378 167.465 18.3863V16.3507C167.465 16.0992 167.667 15.8965 167.918 15.8965H170.012V11.5899C170.012 11.3385 170.206 11.1357 170.456 11.1357H173.068C173.319 11.1357 173.521 11.3304 173.521 11.5818V11.5818Z" fill="white"/>
</g>
<defs>
<clipPath id="clip0_1178_22490">
<rect width="177.484" height="40.625" fill="white"/>
</clipPath>
<clipPath id="clip1_1178_22490">
<rect width="40" height="40.625" fill="white"/>
</clipPath>
</defs>
</svg>
