<svg width="1308" height="232" viewBox="0 0 1308 232" fill="none" xmlns="http://www.w3.org/2000/svg">
<g clip-path="url(#clip0_1011_2164)">
<rect x="1143.47" width="24.9993" height="232.137" fill="#FF5200"/>
<rect x="1189.9" y="24.9998" width="24.9993" height="117.854" transform="rotate(-90 1189.9 24.9998)" fill="#FF5200"/>
<rect x="1189.9" y="71.4265" width="24.9993" height="117.854" transform="rotate(-90 1189.9 71.4265)" fill="#FF5200"/>
<rect x="1189.9" y="117.854" width="24.9993" height="117.854" transform="rotate(-90 1189.9 117.854)" fill="#FF5200"/>
<mask id="mask0_1011_2164" style="mask-type:alpha" maskUnits="userSpaceOnUse" x="0" y="0" width="1094" height="131">
<path fill-rule="evenodd" clip-rule="evenodd" d="M0 0H1093.72V130.923H0V0Z" fill="white"/>
</mask>
<g mask="url(#mask0_1011_2164)">
<path fill-rule="evenodd" clip-rule="evenodd" d="M970.553 126.063V1.9934H946.153L943.28 4.85905V83.9567L881.465 1.9934H858.154L855.281 4.85905V128.928H879.864L882.734 126.066V47.3273L944.373 128.928H967.68L970.553 126.063ZM673.955 1.9934L671.086 4.85905V76.5218C671.086 85.7106 668.597 92.9052 663.627 98.1021C658.657 103.299 651.993 105.899 643.629 105.899C635.023 105.899 628.144 103.27 622.994 98.0124C617.84 92.751 615.266 85.5886 615.266 76.5218V1.9934H589.409L586.536 4.85905V76.5218C586.536 87.6473 588.837 97.2879 593.448 105.444C598.051 113.607 604.657 119.894 613.263 124.305C621.872 128.717 631.93 130.923 643.449 130.923C654.96 130.923 664.958 128.717 673.448 124.305C681.928 119.894 688.448 113.607 692.99 105.444C697.539 97.2879 699.812 87.6473 699.812 76.5218V1.9934H673.955ZM500.949 25.0259C507.979 25.0259 514.434 26.8084 520.311 30.3735C526.19 33.9385 530.855 38.8054 534.311 44.9707C537.767 51.136 539.496 57.911 539.496 65.2813C539.496 72.7772 537.767 79.6383 534.311 85.8609C530.855 92.0872 526.19 96.9864 520.311 100.551C514.434 104.116 507.979 105.899 500.949 105.899C493.915 105.899 487.402 104.088 481.4 100.458C475.405 96.8322 470.611 91.9365 467.037 85.7712C463.462 79.606 461.675 72.7772 461.675 65.2813C461.675 57.911 463.43 51.136 466.947 44.9707C470.46 38.8054 475.25 33.9385 481.31 30.3735C487.373 26.8084 493.915 25.0259 500.949 25.0259V25.0259ZM500.585 -0.00108988C487.736 -0.00108988 476.128 2.84304 465.763 8.52413C455.403 14.2088 447.221 22.0311 441.219 32.0053C435.217 41.9794 432.222 53.0726 432.222 65.2812C432.222 77.6118 435.217 88.7624 441.219 98.7366C447.221 108.711 455.428 116.572 465.857 122.311C476.279 128.053 487.855 130.922 500.585 130.922C513.312 130.922 524.885 128.053 535.314 122.311C545.735 116.572 553.949 108.682 559.951 98.6433C565.95 88.6117 568.949 77.4934 568.949 65.2812C568.949 53.0726 565.95 41.9794 559.951 32.0053C553.949 22.0311 545.735 14.2088 535.314 8.52413C524.885 2.84304 513.312 -0.00108988 500.585 -0.00108988V-0.00108988ZM284.247 126.063V1.9934H259.846L256.973 4.85905V83.9567L195.151 1.9934H171.84L168.971 4.85905V128.928H193.551L196.424 126.063V47.3273L258.063 128.928H281.373L284.247 126.063ZM142.711 126.063V1.9934H116.854L113.984 4.85905V128.928H139.837L142.711 126.063ZM90.0019 77.3073V56.4192H28.7264V28.6163L31.5997 25.7507H94.0368L96.9101 22.885V1.9934H2.87336L0 4.85905V128.928H25.853L28.7264 126.063V83.0386L31.5997 80.1729H87.1285L90.0019 77.3073ZM389.408 90.1221C389.408 85.5313 387.466 81.9017 383.586 79.2441C379.71 76.5864 374.376 75.3168 367.587 75.4352H342.097L339.224 78.3008V105.537H367.587C374.376 105.537 379.71 104.178 383.586 101.456C387.466 98.7369 389.408 94.9603 389.408 90.1221V90.1221ZM339.224 53.1297H367.587C373.042 53.1297 377.314 51.8924 380.404 49.4105C383.496 46.9358 385.046 43.4604 385.046 38.988C385.046 34.6339 383.496 31.2482 380.404 28.8309C377.314 26.4136 373.042 25.2659 367.587 25.3878H342.097L339.224 28.2535V53.1297ZM419.041 93.7516C419.041 104.63 414.74 113.212 406.134 119.499C397.525 125.787 385.83 128.928 371.042 128.928H310.497V4.85905L313.367 1.9934H369.039C383.104 1.9934 394.191 4.83753 402.315 10.5186C410.435 16.2033 414.495 23.9359 414.495 33.7272C414.495 40.4986 412.524 46.3948 408.587 51.4088C404.649 56.4264 399.283 59.8408 392.497 61.6556C400.74 63.2265 407.224 66.8848 411.953 72.6268C416.678 78.3653 419.041 85.4093 419.041 93.7516V93.7516ZM805.131 46.964C805.131 39.9523 802.977 34.6657 798.676 31.0971C794.371 27.5321 788.225 25.7496 780.22 25.7496H756.547L753.673 28.6152V68.7272H780.22C788.225 68.7272 794.371 66.8837 798.676 63.1931C802.977 59.5098 805.131 54.0977 805.131 46.964V46.964ZM833.623 128.928H803.131L782.949 92.6613H780.22H756.546L753.673 95.5269V126.063L750.803 128.928H724.95V4.85905L727.823 1.9934H780.22C796.823 1.9934 809.676 5.83459 818.767 13.5098C827.858 21.1886 832.404 32.0379 832.404 46.0613C832.404 55.849 830.376 64.2236 826.316 71.1707C822.252 78.1286 816.34 83.4116 808.583 87.0412L833.623 125.758V128.928ZM1090.85 128.928H996.811V4.85905L999.684 1.9934H1093.72V22.885L1090.85 25.7507H1028.41L1025.54 28.6163V53.5859H1086.81V74.4739L1083.94 77.3396H1028.41L1025.54 80.2052V105.171H1093.72V126.063L1090.85 128.928Z" fill="white"/>
</g>
<path d="M778.327 232.439C774.756 232.439 771.452 231.858 768.417 230.698C765.426 229.492 762.814 227.818 760.582 225.675C758.395 223.488 756.676 220.943 755.426 218.042C754.176 215.14 753.551 211.948 753.551 208.466C753.551 204.984 754.176 201.792 755.426 198.89C756.676 195.989 758.417 193.466 760.649 191.324C762.881 189.136 765.493 187.462 768.484 186.301C771.519 185.096 774.823 184.493 778.394 184.493C782.01 184.493 785.336 185.118 788.372 186.368C791.452 187.574 794.063 189.382 796.206 191.792L791.854 196.011C790.068 194.136 788.059 192.752 785.827 191.859C783.595 190.922 781.207 190.453 778.662 190.453C776.028 190.453 773.573 190.899 771.296 191.792C769.064 192.685 767.122 193.935 765.47 195.542C763.819 197.149 762.524 199.069 761.587 201.301C760.694 203.488 760.247 205.877 760.247 208.466C760.247 211.055 760.694 213.466 761.587 215.698C762.524 217.885 763.819 219.783 765.47 221.39C767.122 222.997 769.064 224.247 771.296 225.14C773.573 226.032 776.028 226.479 778.662 226.479C781.207 226.479 783.595 226.032 785.827 225.14C788.059 224.202 790.068 222.774 791.854 220.854L796.206 225.073C794.063 227.483 791.452 229.314 788.372 230.564C785.336 231.814 781.988 232.439 778.327 232.439Z" fill="white"/>
<path d="M825.938 232.439C822.367 232.439 819.041 231.836 815.961 230.631C812.925 229.425 810.291 227.751 808.059 225.608C805.827 223.421 804.086 220.876 802.836 217.975C801.586 215.073 800.961 211.903 800.961 208.466C800.961 205.029 801.586 201.859 802.836 198.957C804.086 196.056 805.827 193.533 808.059 191.391C810.291 189.203 812.925 187.507 815.961 186.301C818.996 185.096 822.322 184.493 825.938 184.493C829.509 184.493 832.79 185.096 835.781 186.301C838.817 187.462 841.451 189.136 843.683 191.324C845.96 193.466 847.701 195.989 848.906 198.89C850.156 201.792 850.781 204.984 850.781 208.466C850.781 211.948 850.156 215.14 848.906 218.042C847.701 220.943 845.96 223.488 843.683 225.675C841.451 227.818 838.817 229.492 835.781 230.698C832.79 231.858 829.509 232.439 825.938 232.439ZM825.938 226.479C828.527 226.479 830.915 226.032 833.103 225.14C835.335 224.247 837.255 222.997 838.862 221.39C840.513 219.738 841.786 217.818 842.679 215.631C843.616 213.444 844.085 211.055 844.085 208.466C844.085 205.877 843.616 203.488 842.679 201.301C841.786 199.114 840.513 197.216 838.862 195.609C837.255 193.957 835.335 192.685 833.103 191.792C830.915 190.899 828.527 190.453 825.938 190.453C823.304 190.453 820.871 190.899 818.639 191.792C816.452 192.685 814.532 193.957 812.88 195.609C811.229 197.216 809.934 199.114 808.996 201.301C808.104 203.488 807.657 205.877 807.657 208.466C807.657 211.055 808.104 213.444 808.996 215.631C809.934 217.818 811.229 219.738 812.88 221.39C814.532 222.997 816.452 224.247 818.639 225.14C820.871 226.032 823.304 226.479 825.938 226.479Z" fill="white"/>
<path d="M861.016 231.903V185.029H866.507L897.51 223.533H894.631V185.029H901.327V231.903H895.836L864.833 193.399H867.712V231.903H861.016Z" fill="white"/>
<path d="M971.329 205.252H995.435V210.944H971.329V205.252ZM971.931 226.077H999.252V231.903H965.235V185.029H998.314V190.855H971.931V226.077Z" fill="white"/>
<path d="M1030.99 232.439C1027.42 232.439 1024.11 231.858 1021.08 230.698C1018.09 229.492 1015.48 227.818 1013.24 225.675C1011.06 223.488 1009.34 220.943 1008.09 218.042C1006.84 215.14 1006.21 211.948 1006.21 208.466C1006.21 204.984 1006.84 201.792 1008.09 198.89C1009.34 195.989 1011.08 193.466 1013.31 191.324C1015.54 189.136 1018.15 187.462 1021.14 186.301C1024.18 185.096 1027.48 184.493 1031.06 184.493C1034.67 184.493 1038 185.118 1041.03 186.368C1044.11 187.574 1046.72 189.382 1048.87 191.792L1044.51 196.011C1042.73 194.136 1040.72 192.752 1038.49 191.859C1036.26 190.922 1033.87 190.453 1031.32 190.453C1028.69 190.453 1026.23 190.899 1023.96 191.792C1021.73 192.685 1019.78 193.935 1018.13 195.542C1016.48 197.149 1015.19 199.069 1014.25 201.301C1013.35 203.488 1012.91 205.877 1012.91 208.466C1012.91 211.055 1013.35 213.466 1014.25 215.698C1015.19 217.885 1016.48 219.783 1018.13 221.39C1019.78 222.997 1021.73 224.247 1023.96 225.14C1026.23 226.032 1028.69 226.479 1031.32 226.479C1033.87 226.479 1036.26 226.032 1038.49 225.14C1040.72 224.202 1042.73 222.774 1044.51 220.854L1048.87 225.073C1046.72 227.483 1044.11 229.314 1041.03 230.564C1038 231.814 1034.65 232.439 1030.99 232.439Z" fill="white"/>
<path d="M1071.67 231.903V190.855H1052.65V185.029H1094.37V190.855H1078.3V231.903H1071.67Z" fill="white"/>
<path d="M912.921 231.903V185.03H918.412L949.416 223.533H946.537V185.03H953.233V231.903H947.742L916.738 193.4H919.618V231.903H912.921Z" fill="white"/>
<path d="M397.4 232.439C393.828 232.439 390.413 231.903 387.155 230.831C383.896 229.715 381.329 228.287 379.454 226.546L381.931 221.323C383.717 222.885 385.994 224.18 388.762 225.207C391.529 226.233 394.409 226.747 397.4 226.747C400.123 226.747 402.333 226.434 404.029 225.809C405.725 225.184 406.975 224.336 407.779 223.265C408.583 222.149 408.984 220.899 408.984 219.515C408.984 217.908 408.449 216.613 407.377 215.631C406.35 214.649 404.989 213.868 403.293 213.287C401.641 212.662 399.81 212.127 397.802 211.68C395.793 211.234 393.762 210.72 391.708 210.14C389.699 209.515 387.846 208.734 386.15 207.796C384.498 206.859 383.159 205.609 382.132 204.046C381.106 202.439 380.592 200.386 380.592 197.886C380.592 195.475 381.217 193.265 382.467 191.257C383.762 189.203 385.726 187.574 388.36 186.368C391.038 185.118 394.431 184.493 398.538 184.493C401.261 184.493 403.962 184.851 406.641 185.565C409.319 186.279 411.64 187.306 413.605 188.645L411.395 194.002C409.386 192.663 407.266 191.703 405.034 191.123C402.801 190.498 400.636 190.185 398.538 190.185C395.904 190.185 393.739 190.52 392.043 191.19C390.346 191.859 389.096 192.752 388.293 193.868C387.534 194.984 387.155 196.234 387.155 197.618C387.155 199.27 387.668 200.587 388.695 201.569C389.766 202.551 391.128 203.332 392.779 203.913C394.476 204.493 396.328 205.029 398.337 205.52C400.346 205.966 402.355 206.479 404.364 207.06C406.417 207.64 408.27 208.399 409.922 209.336C411.618 210.274 412.98 211.524 414.007 213.086C415.033 214.649 415.547 216.658 415.547 219.113C415.547 221.479 414.899 223.689 413.605 225.742C412.31 227.751 410.301 229.381 407.578 230.631C404.9 231.836 401.507 232.439 397.4 232.439Z" fill="white"/>
<path d="M425.329 231.903V185.029H432.026V231.903H425.329Z" fill="white"/>
<path d="M446.059 231.903V185.029H451.55L472.576 220.452H469.63L490.388 185.029H495.879L495.946 231.903H489.518L489.451 195.14H490.991L472.509 226.211H469.429L450.813 195.14H452.487V231.903H446.059Z" fill="white"/>
<path d="M510.013 231.903V185.029H528.294C532.401 185.029 535.906 185.676 538.807 186.971C541.709 188.266 543.941 190.141 545.504 192.596C547.066 195.051 547.847 197.975 547.847 201.368C547.847 204.761 547.066 207.685 545.504 210.14C543.941 212.551 541.709 214.426 538.807 215.765C535.906 217.059 532.401 217.707 528.294 217.707H513.696L516.71 214.56V231.903H510.013ZM516.71 215.229L513.696 211.881H528.093C532.379 211.881 535.615 210.966 537.803 209.136C540.035 207.305 541.151 204.716 541.151 201.368C541.151 198.02 540.035 195.431 537.803 193.6C535.615 191.77 532.379 190.855 528.093 190.855H513.696L516.71 187.507V215.229Z" fill="white"/>
<path d="M557.685 231.903V185.029H564.381V226.077H589.76V231.903H557.685Z" fill="white"/>
<path d="M597.444 231.903V185.029H604.14V231.903H597.444Z" fill="white"/>
<path d="M624.2 207.194H648.374V212.952H624.2V207.194ZM624.87 231.903H618.173V185.029H651.253V190.855H624.87V231.903Z" fill="white"/>
<path d="M671.996 231.903V213.957L673.536 218.109L653.38 185.029H660.545L677.486 212.952H673.603L690.611 185.029H697.24L677.152 218.109L678.625 213.957V231.903H671.996Z" fill="white"/>
<circle cx="350.437" cy="209.046" r="6.69625" fill="white"/>
<circle cx="725.427" cy="209.046" r="6.69625" fill="white"/>
<path d="M0 231.367V184.493H6.69625V225.541H32.075V231.367H0Z" fill="white"/>
<path d="M39.759 231.367V184.493H46.4552V231.367H39.759Z" fill="white"/>
<path d="M60.4885 231.367V184.493H81.5148C86.9164 184.493 91.0681 185.587 93.9698 187.775C96.8715 189.917 98.3223 192.864 98.3223 196.614C98.3223 199.158 97.742 201.301 96.5813 203.042C95.4653 204.783 93.9475 206.122 92.0279 207.06C90.1083 207.997 88.0324 208.466 85.8004 208.466L87.0057 206.457C89.6842 206.457 92.0502 206.926 94.1037 207.863C96.1572 208.801 97.7866 210.185 98.992 212.015C100.197 213.801 100.8 216.033 100.8 218.711C100.8 222.729 99.2821 225.854 96.2465 228.086C93.2555 230.273 88.7913 231.367 82.854 231.367H60.4885ZM67.1848 225.943H82.5862C86.2914 225.943 89.1262 225.318 91.0904 224.068C93.0546 222.818 94.0367 220.854 94.0367 218.176C94.0367 215.452 93.0546 213.466 91.0904 212.216C89.1262 210.966 86.2914 210.341 82.5862 210.341H66.5821V204.917H80.9121C84.3049 204.917 86.9387 204.292 88.8137 203.042C90.6886 201.792 91.6261 199.917 91.6261 197.417C91.6261 194.917 90.6886 193.042 88.8137 191.792C86.9387 190.542 84.3049 189.917 80.9121 189.917H67.1848V225.943Z" fill="white"/>
<path d="M117.262 204.716H141.368V210.408H117.262V204.716ZM117.864 225.541H145.185V231.367H111.168V184.493H144.248V190.319H117.864V225.541Z" fill="white"/>
<path d="M156.028 231.367V184.493H174.309C178.416 184.493 181.92 185.141 184.822 186.435C187.723 187.73 189.955 189.605 191.518 192.06C193.08 194.515 193.862 197.439 193.862 200.832C193.862 204.225 193.08 207.149 191.518 209.604C189.955 212.015 187.723 213.868 184.822 215.162C181.92 216.457 178.416 217.104 174.309 217.104H159.711L162.724 214.024V231.367H156.028ZM187.366 231.367L175.447 214.359H182.612L194.665 231.367H187.366ZM162.724 214.693L159.711 211.412H174.108C178.393 211.412 181.63 210.497 183.817 208.667C186.049 206.792 187.165 204.18 187.165 200.832C187.165 197.484 186.049 194.895 183.817 193.065C181.63 191.234 178.393 190.319 174.108 190.319H159.711L162.724 186.971V214.693Z" fill="white"/>
<path d="M197.582 231.367L218.809 184.493H225.439L246.733 231.367H239.702L220.751 188.243H223.43L204.479 231.367H197.582ZM206.622 219.649L208.43 214.292H234.813L236.755 219.649H206.622Z" fill="white"/>
<path d="M260.679 231.367V190.319H244.608V184.493H283.379V190.319H267.308V231.367H260.679Z" fill="white"/>
<path d="M296.766 204.716H320.872V210.408H296.766V204.716ZM297.368 225.541H324.689V231.367H290.672V184.493H323.751V190.319H297.368V225.541Z" fill="white"/>
</g>
<defs>
<clipPath id="clip0_1011_2164">
<rect width="1308" height="232" fill="white"/>
</clipPath>
</defs>
</svg>
